<?xml version="1.0" encoding="utf-8"?>
<!-- Generator: Adobe Illustrator 16.0.0, SVG Export Plug-In . SVG Version: 6.00 Build 0)  -->
<!DOCTYPE svg PUBLIC "-//W3C//DTD SVG 1.1//EN" "http://www.w3.org/Graphics/SVG/1.1/DTD/svg11.dtd">
<svg version="1.1" xmlns="http://www.w3.org/2000/svg" xmlns:xlink="http://www.w3.org/1999/xlink" x="0px" y="0px" width="80px"
	 height="80px" viewBox="0 0 80 80" enable-background="new 0 0 80 80" xml:space="preserve">
<g id="Layer_1">
	<linearGradient id="SVGID_1_" gradientUnits="userSpaceOnUse" x1="39.9731" y1="0.2305" x2="39.9731" y2="79.5483">
		<stop  offset="0" style="stop-color:#E6E6E6"/>
		<stop  offset="1" style="stop-color:#969696"/>
	</linearGradient>
	<path fill="url(#SVGID_1_)" d="M79.632,67.734c0,6.57-5.327,11.897-11.897,11.897H12.212c-6.571,0-11.897-5.327-11.897-11.897
		V12.212c0-6.571,5.327-11.897,11.897-11.897h55.522c6.57,0,11.897,5.327,11.897,11.897V67.734z"/>
</g>
<g id="Layer_1_copy">
	<path opacity="0.7" fill="#FFFFFF" d="M67.734,0.482H12.212c-6.571,0-11.897,5.327-11.897,11.897v0.868
		c0-6.571,5.327-11.897,11.897-11.897h55.522c6.57,0,11.897,5.327,11.897,11.897v-0.868C79.632,5.809,74.305,0.482,67.734,0.482z"/>
</g>
<g id="Layer_1_copy_2">
	<path opacity="0.7" fill="#808080" d="M67.734,79.485H12.212c-6.571,0-11.897-5.326-11.897-11.897V66.72
		c0,6.57,5.327,11.897,11.897,11.897h55.522c6.57,0,11.897-5.327,11.897-11.897v0.868C79.632,74.159,74.305,79.485,67.734,79.485z"
		/>
</g>
<g id="Layer_5">
	<linearGradient id="SVGID_2_" gradientUnits="userSpaceOnUse" x1="35.5703" y1="4.3574" x2="42.4504" y2="46.1246">
		<stop  offset="0" style="stop-color:#131313;stop-opacity:0"/>
		<stop  offset="1" style="stop-color:#FFFFFF;stop-opacity:0.3"/>
	</linearGradient>
	<path fill="url(#SVGID_2_)" d="M79.659,27.605V12.239c0-6.571-5.327-11.897-11.897-11.897H12.239
		c-6.571,0-11.897,5.327-11.897,11.897v39.013c11.096,3.397,25.188,3.697,39.759,0.082C57.598,46.996,71.854,37.994,79.659,27.605z"
		/>
</g>
<g id="Layer_6">
	<g>
		<linearGradient id="SVGID_3_" gradientUnits="userSpaceOnUse" x1="40.1914" y1="63.5049" x2="40.1914" y2="16.8138">
			<stop  offset="0" style="stop-color:#003754"/>
			<stop  offset="0.4745" style="stop-color:#006EA9"/>
			<stop  offset="1" style="stop-color:#6AC6FF"/>
		</linearGradient>
		<path fill="url(#SVGID_3_)" d="M51.019,16.703c2.191,0,4.251,0.387,6.176,1.159c1.925,0.773,3.608,1.836,5.053,3.188
			c1.443,1.353,2.606,2.911,3.488,4.674c0.883,1.764,1.376,3.659,1.484,5.688v26.666c0,1.402-0.535,2.572-1.604,3.515
			c-1.07,0.942-2.326,1.413-3.77,1.413c-1.552,0-2.848-0.471-3.89-1.413c-1.043-0.942-1.564-2.112-1.564-3.515V31.992
			c0-1.4-0.521-2.572-1.563-3.514s-2.313-1.413-3.81-1.413c-1.498,0-2.781,0.471-3.85,1.413c-1.07,0.942-1.604,2.114-1.604,3.514
			v26.086c0,1.402-0.521,2.572-1.563,3.515c-1.043,0.942-2.313,1.413-3.81,1.413c-1.498,0-2.767-0.471-3.81-1.413
			s-1.564-2.112-1.564-3.515V31.992c0-1.4-0.521-2.572-1.564-3.514c-1.042-0.942-2.339-1.413-3.89-1.413
			c-1.498,0-2.767,0.471-3.81,1.413c-1.043,0.942-1.564,2.114-1.564,3.514v26.086c0,1.402-0.521,2.572-1.564,3.515
			c-1.043,0.942-2.34,1.413-3.89,1.413c-1.497,0-2.767-0.471-3.81-1.413c-1.042-0.942-1.564-2.112-1.564-3.515V31.413
			c0-1.884,0.414-3.719,1.243-5.507c0.829-1.787,1.978-3.357,3.449-4.71c1.47-1.352,3.194-2.439,5.173-3.261
			c1.978-0.821,4.09-1.232,6.336-1.232c2.031,0,3.942,0.338,5.734,1.015c1.791,0.677,3.489,1.594,5.093,2.753
			c1.55-1.111,3.221-2.017,5.013-2.717C46.994,17.054,48.933,16.703,51.019,16.703z"/>
	</g>
</g>
<g id="Layer_6_copy">
	<g>
		<linearGradient id="SVGID_4_" gradientUnits="userSpaceOnUse" x1="32.104" y1="16" x2="32.104" y2="29.5098">
			<stop  offset="0" style="stop-color:#3FCCFF"/>
			<stop  offset="1" style="stop-color:#00152A"/>
		</linearGradient>
		<path fill="url(#SVGID_4_)" d="M34.788,31.225c0-1.884,0.414-3.719,1.243-5.507c0.829-1.787,1.978-3.357,3.449-4.71
			c0.215-0.198,0.447-0.377,0.672-0.564c-1.26-0.907-2.581-1.66-3.956-2.269c-0.796,0.194-1.578,0.429-2.334,0.743
			c-1.979,0.822-3.703,1.909-5.173,3.261c-1.471,1.353-2.62,2.923-3.449,4.71c-0.67,1.444-1.055,2.922-1.184,4.429
			c0.146-1.103,0.63-2.056,1.499-2.84c1.042-0.942,2.312-1.413,3.81-1.413c1.55,0,2.847,0.471,3.89,1.413
			c0.963,0.87,1.461,1.946,1.534,3.207V31.225z"/>
		<linearGradient id="SVGID_5_" gradientUnits="userSpaceOnUse" x1="67.2197" y1="32.9248" x2="67.2197" y2="32.9248">
			<stop  offset="0" style="stop-color:#3FCCFF"/>
			<stop  offset="1" style="stop-color:#00152A"/>
		</linearGradient>
		<path fill="url(#SVGID_5_)" d="M67.22,32.925"/>
		<linearGradient id="SVGID_6_" gradientUnits="userSpaceOnUse" x1="53.666" y1="16.0625" x2="53.666" y2="29.5728">
			<stop  offset="0" style="stop-color:#3FCCFF"/>
			<stop  offset="1" style="stop-color:#00152A"/>
		</linearGradient>
		<path fill="url(#SVGID_6_)" d="M56.35,31.204c0-1.883,0.414-3.719,1.244-5.506c0.828-1.787,1.977-3.357,3.448-4.71
			c0.215-0.198,0.446-0.226,0.673-0.412c-1.256-1.106-2.625-1.871-3.836-2.421c-0.795,0.194-1.699,0.429-2.455,0.743
			c-1.979,0.822-3.703,1.909-5.174,3.261c-1.471,1.353-2.619,2.923-3.448,4.71c-0.671,1.444-1.056,2.922-1.184,4.43
			c0.146-1.104,0.63-2.057,1.499-2.84c1.042-0.942,2.312-1.413,3.809-1.413c1.551,0,2.848,0.471,3.891,1.413
			c0.963,0.87,1.461,1.946,1.533,3.208V31.204z"/>
	</g>
</g>
<g id="Layer_6_copy_2">
	<path opacity="0.4" fill="#F2F2F2" d="M65.735,25.725c-0.882-1.763-2.045-3.321-3.488-4.674c-1.444-1.352-3.128-2.415-5.053-3.188
		c-1.925-0.772-3.984-1.159-6.176-1.159c-2.086,0-4.024,0.351-5.814,1.051c-1.792,0.701-3.463,1.606-5.013,2.717
		c-1.604-1.16-3.302-2.077-5.093-2.753c-1.792-0.676-3.703-1.015-5.734-1.015c-2.246,0-4.358,0.411-6.336,1.232
		c-1.979,0.822-3.703,1.909-5.173,3.261c-1.471,1.353-2.62,2.923-3.449,4.71c-0.83,1.788-1.243,3.623-1.243,5.507v0.274
		c0-1.884,0.414-3.719,1.243-5.507c0.829-1.787,1.978-3.357,3.449-4.71c1.47-1.352,3.194-2.439,5.173-3.261
		c1.978-0.821,4.09-1.232,6.336-1.232c2.031,0,3.943,0.338,5.734,1.015c1.791,0.677,3.489,1.594,5.094,2.753
		c1.55-1.111,3.221-2.017,5.013-2.717c1.79-0.7,3.729-1.051,5.814-1.051c2.191,0,4.251,0.387,6.176,1.159
		c1.925,0.773,3.608,1.836,5.053,3.188c1.443,1.353,2.606,2.911,3.488,4.674c0.883,1.764,1.376,3.659,1.484,5.688v-0.274
		C67.111,29.384,66.618,27.488,65.735,25.725z"/>
</g>
</svg>
