<?xml version="1.0" encoding="utf-8"?>
<!-- Generator: Adobe Illustrator 16.0.0, SVG Export Plug-In . SVG Version: 6.00 Build 0)  -->
<!DOCTYPE svg PUBLIC "-//W3C//DTD SVG 1.1//EN" "http://www.w3.org/Graphics/SVG/1.1/DTD/svg11.dtd">
<svg version="1.1" id="Layer_1" xmlns="http://www.w3.org/2000/svg" xmlns:xlink="http://www.w3.org/1999/xlink" x="0px" y="0px"
	 width="48px" height="48px" viewBox="0 0 48 48" enable-background="new 0 0 48 48" xml:space="preserve">
<linearGradient id="SVGID_1_" gradientUnits="userSpaceOnUse" x1="23.9995" y1="0.7378" x2="23.9995" y2="47.7383">
	<stop  offset="0" style="stop-color:#FFFFFF"/>
	<stop  offset="1" style="stop-color:#ACACAC"/>
</linearGradient>
<path fill="url(#SVGID_1_)" stroke="#CCCCCC" stroke-miterlimit="10" d="M47.5,35.471c0,6.644-5.386,12.029-12.029,12.029H12.529
	C5.886,47.5,0.5,42.114,0.5,35.471V12.529C0.5,5.886,5.886,0.5,12.529,0.5h22.941C42.114,0.5,47.5,5.886,47.5,12.529V35.471z"/>
<circle fill="#EDC116" cx="24.232" cy="24.009" r="11.85"/>
<g>
	<path fill="#434345" d="M16.08,24.198c0-1.943,0.635-3.514,3.01-3.514c1.235,0,1.823,0.276,2.111,0.636v-2.998h1.883v9.235
		l-1.439,0.132l-0.192-0.684c-0.407,0.479-1.115,0.755-2.422,0.755C16.691,27.76,16.08,26.153,16.08,24.198z M21.201,24.198
		c0-1.283-0.36-1.823-1.727-1.823c-1.235,0-1.487,0.743-1.487,1.823c0,1.091,0.252,1.942,1.487,1.942
		C20.769,26.141,21.201,25.506,21.201,24.198z"/>
	<path fill="#434345" d="M24.252,24.222c0-1.895,0.623-3.538,3.526-3.538c2.986,0,3.082,1.991,3.021,4.258h-4.725
		c0.107,0.816,0.503,1.295,1.715,1.295c1.043,0,1.631-0.252,2.135-0.624l0.947,1.224c-0.875,0.659-1.739,0.923-3.082,0.923
		C24.852,27.76,24.252,26.153,24.252,24.222z M26.075,23.599h3.01c-0.048-0.78-0.204-1.343-1.367-1.343S26.171,22.771,26.075,23.599
		z"/>
</g>
<g>
	<path fill="#434345" d="M9.016,19.055H3.785v-3.012h13.8v3.012h-5.211v12.07H9.016V19.055z"/>
</g>
<g>
	<path fill="#434345" d="M33.387,16.042h10.973v3.012h-7.634v3.237h7.429v2.971h-7.429v5.863h-3.339V16.042z"/>
</g>
</svg>
